<svg width="75" height="68" viewBox="0 0 75 68" fill="none" xmlns="http://www.w3.org/2000/svg">
<path d="M37.5 0L69.976 17V51L37.5 68L5.02405 51V17L37.5 0Z" fill="#46C1FF"/>
<path d="M53.1531 46.8928C52.3177 46.8928 51.6005 46.5988 51.0013 46.0109C50.4107 45.4145 50.1153 44.7006 50.1153 43.8691C50.1153 43.0459 50.4107 42.3404 51.0013 41.7525C51.6005 41.1645 52.3177 40.8705 53.1531 40.8705C53.9632 40.8705 54.672 41.1645 55.2796 41.7525C55.8871 42.3404 56.1909 43.0459 56.1909 43.8691C56.1909 44.4234 56.0475 44.9316 55.7606 45.3935C55.4821 45.8471 55.115 46.2124 54.6594 46.4896C54.2037 46.7584 53.7016 46.8928 53.1531 46.8928Z" fill="white"/>
<path d="M28.2431 46.5652V20.7628H38.4704C40.4365 20.7628 42.1115 21.1366 43.4954 21.8841C44.8793 22.6232 45.9341 23.6521 46.6598 24.9708C47.394 26.2811 47.761 27.793 47.761 29.5064C47.761 31.2198 47.3897 32.7317 46.6472 34.042C45.9046 35.3522 44.8287 36.3728 43.4195 37.1035C42.0187 37.8342 40.3226 38.1996 38.3312 38.1996H31.8126V33.8278H37.4451C38.4999 33.8278 39.3691 33.6472 40.0526 33.286C40.7445 32.9165 41.2593 32.4083 41.5968 31.7616C41.9428 31.1064 42.1158 30.3547 42.1158 29.5064C42.1158 28.6497 41.9428 27.9021 41.5968 27.2638C41.2593 26.6171 40.7445 26.1173 40.0526 25.7645C39.3607 25.4034 38.4831 25.2228 37.4198 25.2228H33.7238V46.5652H28.2431Z" fill="white"/>
</svg>
